<svg xmlns="http://www.w3.org/2000/svg" version="1.1" xmlns:xlink="http://www.w3.org/1999/xlink" xmlns:svgjs="http://svgjs.dev/svgjs" width="1440" height="560" preserveAspectRatio="none" viewBox="0 0 1440 560"><g mask="url(&quot;#SvgjsMask2312&quot;)" fill="none"><rect width="1440" height="560" x="0" y="0" fill="url(&quot;#SvgjsLinearGradient2313&quot;)"></rect><path d="M1560 560L0 560 L0 352.96Q37.64 318.6, 72 356.24Q73.34 285.58, 144 286.91Q204.42 275.33, 216 335.74Q239.98 287.72, 288 311.69Q343.68 295.37, 360 351.04Q368.72 287.76, 432 296.48Q501.17 245.65, 552 314.82Q641.44 284.26, 672 373.7Q723.45 305.15, 792 356.6Q809.09 301.69, 864 318.77Q913.12 295.89, 936 345.01Q983.67 320.68, 1008 368.35Q1024.37 312.72, 1080 329.09Q1127.98 257.07, 1200 305.06Q1289.5 274.56, 1320 364.07Q1343.56 267.63, 1440 291.18Q1509.19 240.37, 1560 309.56z" fill="rgba(86, 86, 86, 1)"></path><path d="M1464 560L0 560 L0 443.27Q57.75 381.02, 120 438.78Q158.21 356.99, 240 395.2Q258.67 341.87, 312 360.53Q397.24 325.76, 432 411Q459.94 366.94, 504 394.88Q524.09 342.97, 576 363.06Q657.07 324.13, 696 405.19Q751.63 388.81, 768 444.44Q798.85 403.29, 840 434.14Q874.44 348.58, 960 383.03Q1004.42 355.45, 1032 399.88Q1075.05 370.93, 1104 413.98Q1145.61 335.59, 1224 377.2Q1313.74 346.94, 1344 436.68Q1395.84 368.52, 1464 420.36z" fill="rgba(100, 99, 99, 1)"></path><path d="M1560 560L0 560 L0 427.22Q71.68 426.9, 72 498.58Q87.68 442.26, 144 457.94Q196.66 390.6, 264 443.25Q338.64 397.89, 384 472.53Q426 442.53, 456 484.54Q503.33 459.88, 528 507.21Q531.76 438.97, 600 442.73Q653.07 375.81, 720 428.88Q785.32 422.2, 792 487.53Q804.21 427.74, 864 439.94Q932.91 388.86, 984 457.77Q1035.51 437.27, 1056 488.78Q1127.9 440.68, 1176 512.58Q1205.56 470.13, 1248 499.69Q1269.46 449.15, 1320 470.61Q1366.04 396.65, 1440 442.69Q1527.41 410.1, 1560 497.51z" fill="rgba(114, 114, 114, 1)"></path><path d="M1560 560L0 560 L0 497.35Q101 478.35, 120 579.35Q121.72 509.07, 192 510.78Q220.54 467.31, 264 495.85Q350.71 462.56, 384 549.26Q425.9 471.16, 504 513.06Q589.7 478.75, 624 564.45Q670.25 490.71, 744 536.96Q827.98 500.94, 864 584.92Q912.79 513.71, 984 562.5Q1000.59 507.09, 1056 523.67Q1107.45 455.12, 1176 506.57Q1206.96 465.53, 1248 496.5Q1328.58 457.08, 1368 537.65Q1417.78 515.43, 1440 565.21Q1477.12 482.33, 1560 519.44z" fill="rgba(130, 130, 130, 1)"></path></g><defs><mask id="SvgjsMask2312"><rect width="1440" height="560" fill="#ffffff"></rect></mask><linearGradient x1="50%" y1="100%" x2="50%" y2="0%" gradientUnits="userSpaceOnUse" id="SvgjsLinearGradient2313"><stop stop-color="rgba(43, 43, 43, 1)" offset="0.52"></stop><stop stop-color="rgba(64, 64, 64, 1)" offset="1"></stop></linearGradient></defs></svg>